<svg viewBox="0 0 100 100" xmlns="http://www.w3.org/2000/svg">
    <path d="M50 5C25.1 5 5 25.1 5 50s20.1 45 45 45 45-20.1 45-45S74.9 5 50 5zm0 84.4c-21.7 0-39.4-17.7-39.4-39.4S28.3 10.6 50 10.6 89.4 28.3 89.4 50 71.7 89.4 50 89.4z" fill="#39a900"/>
    <circle cx="50" cy="50" r="10" fill="#39a900"/>
    <path d="M50 25c-1.4 0-2.5 1.1-2.5 2.5v10c0 1.4 1.1 2.5 2.5 2.5s2.5-1.1 2.5-2.5v-10c0-1.4-1.1-2.5-2.5-2.5zM32.3 32.3c-1-1-2.6-1-3.5 0s-1 2.6 0 3.5l7.1 7.1c1 1 2.6 1 3.5 0s1-2.6 0-3.5l-7.1-7.1zM67.7 32.3l-7.1 7.1c-1 1-1 2.6 0 3.5s2.6 1 3.5 0l7.1-7.1c1-1 1-2.6 0-3.5s-2.6-1-3.5 0zM25 50c0 1.4 1.1 2.5 2.5 2.5h10c1.4 0 2.5-1.1 2.5-2.5s-1.1-2.5-2.5-2.5h-10c-1.4 0-2.5 1.1-2.5 2.5zM62.5 50c0 1.4 1.1 2.5 2.5 2.5h10c1.4 0 2.5-1.1 2.5-2.5s-1.1-2.5-2.5-2.5h-10c-1.4 0-2.5 1.1-2.5 2.5zM32.3 67.7l7.1-7.1c1-1 1-2.6 0-3.5s-2.6-1-3.5 0l-7.1 7.1c-1 1-1 2.6 0 3.5s2.6 1 3.5 0zM67.7 67.7c1-1 2.6-1 3.5 0s1 2.6 0 3.5l-7.1 7.1c-1 1-2.6 1-3.5 0s-1-2.6 0-3.5l7.1-7.1zM50 75c-1.4 0-2.5 1.1-2.5 2.5v10c0 1.4 1.1 2.5 2.5 2.5s2.5-1.1 2.5-2.5v-10c0-1.4-1.1-2.5-2.5-2.5z" fill="#39a900"/>
</svg>
